<svg xmlns="http://www.w3.org/2000/svg" viewBox="0 0 512 512" fill="none">
  <!-- Background gradient -->
  <defs>
    <linearGradient id="bgGradient" x1="0%" y1="0%" x2="100%" y2="100%">
      <stop offset="0%" style="stop-color:#2563eb;stop-opacity:1" />
      <stop offset="100%" style="stop-color:#1d4ed8;stop-opacity:1" />
    </linearGradient>
    <linearGradient id="mountainGradient" x1="0%" y1="0%" x2="0%" y2="100%">
      <stop offset="0%" style="stop-color:#ffffff;stop-opacity:1" />
      <stop offset="100%" style="stop-color:#e0e7ff;stop-opacity:1" />
    </linearGradient>
  </defs>
  
  <!-- Background -->
  <rect width="512" height="512" rx="96" fill="url(#bgGradient)"/>
  
  <!-- Mountain layers (terrain representation) -->
  <path d="M 0 380 Q 80 320, 160 340 T 320 300 T 480 320 L 512 380 L 512 512 L 0 512 Z" 
        fill="#1e40af" opacity="0.4"/>
  <path d="M 0 400 Q 100 340, 200 360 T 400 320 T 512 360 L 512 512 L 0 512 Z" 
        fill="#1e3a8a" opacity="0.6"/>
  
  <!-- Main mountain (central peak) -->
  <path d="M 156 280 L 256 120 L 356 280 Z" 
        fill="url(#mountainGradient)" 
        stroke="#cbd5e1" 
        stroke-width="2"/>
  
  <!-- Shadow on mountain -->
  <path d="M 256 120 L 356 280 L 256 280 Z" 
        fill="#94a3b8" 
        opacity="0.3"/>
  
  <!-- Grid overlay (map reference) -->
  <g stroke="#ffffff" stroke-width="1" opacity="0.15">
    <line x1="128" y1="180" x2="384" y2="180"/>
    <line x1="128" y1="240" x2="384" y2="240"/>
    <line x1="128" y1="300" x2="384" y2="300"/>
    <line x1="180" y1="140" x2="180" y2="320"/>
    <line x1="256" y1="140" x2="256" y2="320"/>
    <line x1="332" y1="140" x2="332" y2="320"/>
  </g>
  
  <!-- Compass/location pin (top right) -->
  <circle cx="420" cy="92" r="32" fill="#ffffff" opacity="0.2"/>
  <path d="M 420 76 L 428 100 L 420 96 L 412 100 Z" 
        fill="#ffffff" 
        stroke="#ffffff" 
        stroke-width="2"/>
</svg>
